<svg width="708" height="506" viewBox="0 0 708 506" fill="none" xmlns="http://www.w3.org/2000/svg">
<path d="M190.306 280.993C189.813 281.713 188.949 283.954 187.674 287.759C186.399 291.564 184.856 296.315 183.046 302.032C181.237 307.75 179.262 314.166 177.164 321.241C175.046 328.316 172.866 335.556 170.645 342.918C168.403 350.302 166.264 357.521 164.208 364.616C162.151 371.691 160.3 378.108 158.675 383.825C157.05 389.542 155.693 394.334 154.603 398.222C153.513 402.088 152.855 404.371 152.608 405.091C152.012 407.374 151.045 409.924 149.708 412.721C148.371 415.518 146.808 418.15 144.999 420.66C143.189 423.169 141.194 425.246 139.014 426.891C136.834 428.537 134.592 429.359 132.309 429.359C128.443 429.359 125.625 428.063 123.877 425.493C122.129 422.922 121.244 418.192 121.244 411.322V408.32C121.244 407.312 121.306 406.242 121.429 405.111C121.553 402.828 122.458 398.53 124.144 392.216C125.831 385.923 127.867 378.807 130.211 370.848C132.556 362.888 135.106 354.682 137.821 346.147C140.536 337.633 142.983 330.003 145.163 323.277C138.746 330.434 131.815 337.55 124.309 344.646C116.823 351.741 109.131 358.096 101.295 363.752C93.4385 369.408 85.5204 374.035 77.5406 377.593C69.5608 381.172 61.8895 382.961 54.5267 382.961C46.0739 382.961 38.7934 381.09 32.6852 377.388C26.5769 373.665 21.5381 368.791 17.5482 362.786C13.5584 356.78 10.5968 349.973 8.66354 342.384C6.73029 334.795 5.76367 327.206 5.76367 319.617V316.819C5.76367 315.956 5.82536 315.112 5.94876 314.249C6.66859 300.51 8.64298 286.402 11.8308 271.943C15.0391 257.485 19.2347 243.089 24.438 228.795C29.6413 214.481 35.6467 200.496 42.4748 186.819C49.3028 173.142 56.7273 160.226 64.7688 148.072C72.8103 135.917 81.3454 124.708 90.4152 114.466C99.485 104.224 108.781 95.4215 118.324 88.0587C127.867 80.6959 137.512 74.9373 147.24 70.7829C156.968 66.6285 166.614 64.5513 176.157 64.5513C187.16 64.5513 197.793 67.554 208.055 73.5594C218.318 79.5648 227.923 89.3133 236.869 102.764C238.926 105.766 240.221 108.81 240.756 111.895C241.291 114.98 241.579 117.88 241.579 120.595C241.579 127.032 240.036 132.112 236.951 135.835C233.866 139.557 230.205 141.408 225.989 141.408C222.123 141.408 218.524 139.372 215.212 135.279C211.881 131.207 208.179 125.366 204.065 117.777C200.199 110.908 195.942 105.931 191.294 102.846C186.646 99.761 181.586 98.2391 176.157 98.2391C167.704 98.2391 158.655 101.756 149.05 108.769C139.446 115.782 129.923 125.058 120.504 136.575C111.084 148.092 102.035 161.255 93.3973 176.083C84.7594 190.891 77.1087 206.069 70.4657 221.597C63.8228 237.124 58.5372 252.446 54.609 267.542C50.6808 282.638 48.727 296.212 48.727 308.243C48.727 312.254 48.9944 316.367 49.5496 320.583C50.1049 324.799 51.1127 328.645 52.6346 332.08C54.136 335.514 56.1926 338.353 58.8046 340.553C61.3959 342.774 64.6866 343.885 68.6764 343.885C73.1394 343.885 78.2193 342.384 83.8956 339.381C89.572 336.378 95.4745 332.45 101.562 327.576C107.67 322.701 113.799 317.19 119.969 311.04C126.139 304.891 131.877 298.659 137.183 292.366C142.489 286.073 147.22 280.026 151.312 274.226C155.426 268.427 158.511 263.388 160.547 259.089L177.411 208.64C179.468 203.21 182.162 199.344 185.473 197.04C188.805 194.758 192.219 193.606 195.715 193.606C197.402 193.606 199.088 193.894 200.795 194.47C202.482 195.045 204.004 195.93 205.32 197.164C206.657 198.377 207.706 199.961 208.487 201.894C209.269 203.827 209.659 206.09 209.659 208.66C209.659 215.53 209.063 221.967 207.85 227.993C206.636 234.019 205.094 239.88 203.222 245.598C201.351 251.315 199.273 257.094 196.97 262.874C194.708 268.632 192.466 274.679 190.306 280.993V280.993ZM418.882 323.072C413.555 330.229 407.365 337.201 400.311 344.008C393.236 350.816 385.955 356.862 378.469 362.148C370.983 367.434 363.599 371.691 356.36 374.92C349.1 378.149 342.58 379.753 336.781 379.753C330.981 379.753 326.271 377.82 322.631 373.953C319.011 370.087 317.202 363.505 317.202 354.189C317.202 347.607 318.168 339.936 320.101 331.216C316.955 336.81 313.027 342.466 308.317 348.183C303.607 353.901 298.219 359.125 292.172 363.855C286.126 368.585 279.359 372.411 271.873 375.331C264.387 378.272 256.222 379.732 247.399 379.732C243.409 379.732 239.563 379.239 235.882 378.231C232.2 377.223 228.971 375.516 226.195 373.089C223.418 370.662 221.177 367.413 219.49 363.32C217.804 359.248 216.961 354.127 216.961 347.978C216.961 347.834 217.207 345.654 217.68 341.438C218.153 337.221 219.696 330.558 222.308 321.468C224.899 312.377 228.93 300.613 234.36 286.155C239.81 271.697 247.481 254.174 257.374 233.546C259.903 228.116 262.844 224.209 266.156 221.844C269.487 219.478 273.066 218.306 276.932 218.306C278.619 218.306 280.367 218.553 282.197 219.047C284.007 219.561 285.694 220.342 287.277 221.412C288.84 222.481 290.115 223.839 291.082 225.484C292.049 227.129 292.542 229.021 292.542 231.181C292.542 232.62 292.357 233.978 291.987 235.253C291.391 237.7 290.095 240.868 288.079 244.816C286.084 248.765 283.76 253.269 281.107 258.349C278.454 263.429 275.637 268.9 272.675 274.782C269.714 280.643 266.958 286.731 264.428 293.024C261.898 299.317 259.718 305.734 257.908 312.233C256.099 318.753 255.07 325.087 254.823 331.237C254.823 333.807 255.42 336.173 256.633 338.332C257.847 340.471 259.842 341.561 262.618 341.561C270.475 341.561 277.961 338.99 285.097 333.828C292.234 328.686 298.815 322.27 304.862 314.619C310.908 306.968 316.379 298.742 321.274 289.919C326.168 281.116 330.261 273.075 333.511 265.774C335.814 260.899 337.83 255.675 339.578 250.102C341.326 244.528 343.239 239.366 345.295 234.636C347.352 229.906 349.697 225.977 352.37 222.831C355.023 219.684 358.355 218.1 362.345 218.1C366.684 218.1 370.14 219.746 372.669 223.036C375.199 226.327 376.474 230.276 376.474 234.842C376.474 237.412 375.672 240.97 374.027 245.474C372.381 249.978 370.345 255.141 367.857 260.94C365.389 266.74 362.695 272.931 359.795 279.512C356.895 286.093 354.201 292.798 351.733 299.585C349.244 306.392 347.208 313.035 345.563 319.555C343.938 326.074 343.115 332.121 343.115 337.694C343.115 342.857 345.768 345.427 351.095 345.427C354.838 345.427 359.486 344.132 365.06 341.561C370.633 338.99 376.453 335.37 382.562 330.722C388.67 326.074 394.758 320.604 400.866 314.29C406.974 307.996 412.383 301.189 417.093 293.888L418.882 323.072V323.072Z" fill="#D31111" stroke="#D31111" stroke-width="13.3857" stroke-miterlimit="10"/>
<path d="M424.517 312.336C423.181 315.627 421.885 319.452 420.61 323.833C419.335 328.193 418.718 332.1 418.718 335.535C418.718 337.674 419.088 339.401 419.808 340.697C420.527 341.993 421.926 342.63 423.983 342.63C426.512 342.63 429.679 341.746 433.505 339.936C437.31 338.147 441.423 335.782 445.824 332.841C450.246 329.92 454.832 326.547 459.604 322.743C464.375 318.958 469.126 315.01 473.836 310.937C478.545 306.845 483.049 302.772 487.348 298.7C491.646 294.608 495.472 290.865 498.865 287.43C499.832 286.422 500.983 285.702 502.3 285.291C503.616 284.859 504.768 284.653 505.734 284.653C508.14 284.653 510.156 285.661 511.719 287.656C513.282 289.651 514.064 292.304 514.064 295.595C514.064 298.597 513.22 301.97 511.534 305.693C509.847 309.415 506.886 313.076 502.649 316.634C494.916 325.087 487.122 333.087 479.265 340.676C471.409 348.265 463.594 354.95 455.799 360.749C448.004 366.549 440.271 371.156 432.6 374.611C424.929 378.046 417.463 379.753 410.203 379.753C405.247 379.753 401.113 378.971 397.781 377.388C394.449 375.804 391.796 373.665 389.801 370.95C387.806 368.236 386.387 365.007 385.544 361.284C384.701 357.562 384.269 353.633 384.269 349.479C384.269 342.466 385.153 335.267 386.901 327.905C388.649 320.542 390.727 313.776 393.153 307.626C397.39 296.459 401.668 285.373 406.028 274.35C410.368 263.326 414.358 253.228 417.998 244.076L472.91 105.581C475.09 100.008 478.011 96.059 481.713 93.7762C485.394 91.4933 489.117 90.3416 492.86 90.3416C496.603 90.3416 500.017 91.555 503.102 93.9818C506.187 96.4087 507.729 100.357 507.729 105.787C507.729 108.358 507.215 111.093 506.187 113.952C505.158 116.811 503.863 119.896 502.3 123.186C499.276 129.911 495.677 138.138 491.523 147.866C487.348 157.594 482.885 168.186 478.113 179.641C473.342 191.097 468.447 203.005 463.429 215.386C458.411 227.767 453.516 239.819 448.745 251.562C443.973 263.305 439.51 274.432 435.335 284.941C431.119 295.471 427.52 304.603 424.517 312.336V312.336Z" fill="#D31111" stroke="#D31111" stroke-width="13.3857" stroke-miterlimit="10"/>
<path d="M681.372 273.465C683.058 272.314 684.642 271.388 686.082 270.668C687.521 269.948 688.92 269.599 690.257 269.599C692.91 269.599 694.905 270.792 696.241 273.136C697.578 275.501 698.236 278.401 698.236 281.836C698.236 285.558 697.434 289.343 695.789 293.209C694.164 297.076 691.717 300.284 688.447 302.875C675.51 314.331 663.973 324.779 653.833 334.219C643.674 343.659 634.11 351.782 625.102 358.59C616.094 365.397 607.312 370.642 598.736 374.364C590.16 378.087 580.966 379.938 571.177 379.938C561.984 379.938 554.888 377.922 549.87 373.933C544.852 369.922 542.343 364.41 542.343 357.397V355.793C542.343 355.299 542.404 354.682 542.528 353.962C543.001 349.664 544.893 344.728 548.142 339.155C551.412 333.581 555.341 327.781 559.927 321.755C564.513 315.729 569.408 309.662 574.611 303.513C579.815 297.364 584.607 291.523 589.028 286.011C593.43 280.499 597.091 275.46 599.99 270.874C602.89 266.288 604.35 262.586 604.35 259.706C604.35 257.979 603.733 256.621 602.541 255.634C601.327 254.626 599.332 254.133 596.556 254.133C591.723 254.133 586.746 255.387 581.604 257.896C576.462 260.406 571.382 263.758 566.385 267.974C561.367 272.19 556.472 277.023 551.7 282.473C546.929 287.924 542.466 293.559 538.291 299.441C534.116 305.323 530.311 311.205 526.877 317.148C523.442 323.092 520.501 328.563 518.095 333.581C517.375 335.165 516.347 337.386 515.01 340.245C513.673 343.103 512.233 346.332 510.67 349.911C509.087 353.489 507.441 357.171 505.673 360.955C503.924 364.76 502.32 368.338 500.881 371.691C499.42 375.064 498.125 378.046 496.973 380.719C495.821 383.373 494.999 385.182 494.526 386.19C493.909 387.486 492.921 389.913 491.523 393.491C490.124 397.07 488.541 401.245 486.71 406.057C484.9 410.849 482.988 415.888 481.013 421.194C479.018 426.5 477.147 431.498 475.399 436.228C473.651 440.959 472.108 445.092 470.771 448.671C469.434 452.25 468.591 454.676 468.221 455.972C467.008 459.695 465.589 463.191 463.964 466.502C462.339 469.793 460.468 472.693 458.349 475.202C456.231 477.711 453.825 479.706 451.089 481.207C448.374 482.709 445.31 483.449 441.937 483.449C437.577 483.449 433.998 482.4 431.14 480.343C428.302 478.266 426.883 474.297 426.883 468.435C426.883 465.577 427.253 462.636 427.973 459.633C428.692 456.63 429.618 453.648 430.687 450.728C431.777 447.787 432.888 444.928 434.04 442.151C435.191 439.354 436.24 436.681 437.207 434.089C443.726 419.775 450.39 405.42 457.156 391.044C463.923 376.647 470.422 362.415 476.633 348.307C482.864 334.219 488.623 320.357 493.95 306.762C499.256 293.168 503.678 280.129 507.174 267.686C508.141 265.115 509.477 261.454 511.164 256.724C512.85 251.994 514.784 247.346 516.964 242.76C519.144 238.173 521.591 234.204 524.306 230.852C527.021 227.479 529.962 225.813 533.088 225.813C537.921 225.813 541.417 226.923 543.597 229.145C545.777 231.366 546.867 234.615 546.867 238.914C546.867 239.777 546.744 241.135 546.497 242.986C546.25 244.837 545.942 246.811 545.592 248.888C545.222 250.966 544.831 252.94 544.42 254.791C543.988 256.642 543.597 257.999 543.248 258.863C547.71 253.989 552.544 249.176 557.747 244.364C562.95 239.572 568.318 235.232 573.892 231.366C579.445 227.499 585.121 224.353 590.921 221.905C596.72 219.478 602.52 218.265 608.32 218.265C612.31 218.265 616.258 218.841 620.187 219.993C624.115 221.144 627.611 222.81 630.696 225.031C633.781 227.252 636.29 230.049 638.223 233.402C640.157 236.775 641.123 240.662 641.123 245.104C641.123 250.986 639.642 257.238 636.681 263.902C633.719 270.565 629.997 277.25 625.534 283.975C621.05 290.7 616.217 297.261 611.035 303.616C605.831 309.991 600.978 315.791 596.432 321.015C591.908 326.239 588.103 330.681 585.018 334.321C581.933 337.982 580.329 340.45 580.205 341.725C580.205 343.453 580.761 344.831 581.83 345.921C582.9 347.011 584.73 347.525 587.28 347.525C589.337 347.525 592.36 346.373 596.35 344.091C600.34 341.808 605.934 337.838 613.112 332.183C620.289 326.527 629.421 318.938 640.486 309.415C651.55 299.914 665.186 287.924 681.372 273.465V273.465Z" fill="#D31111" stroke="#D31111" stroke-width="13.3857" stroke-miterlimit="10"/>
<path d="M34.6133 13.0166H22.4307V46H19.4277V13.0166H7.26953V10.4531H34.6133V13.0166ZM42.5967 24.0518C43.557 22.473 44.7858 21.2523 46.2832 20.3896C47.7806 19.527 49.4163 19.0957 51.1904 19.0957C54.0225 19.0957 56.1302 19.8932 57.5137 21.4883C58.8971 23.0833 59.597 25.4759 59.6133 28.666V46H56.708V28.6416C56.6917 26.2816 56.1872 24.5238 55.1943 23.3682C54.2178 22.2126 52.6471 21.6348 50.4824 21.6348C48.6758 21.6348 47.0726 22.2044 45.6729 23.3438C44.2894 24.4668 43.264 25.9886 42.5967 27.9092V46H39.6914V8.5H42.5967V24.0518ZM77.3623 46.4883C75.1162 46.4883 73.0817 45.9349 71.2588 44.8281C69.4521 43.7214 68.0443 42.1833 67.0352 40.2139C66.026 38.2282 65.5215 36.0065 65.5215 33.5488V32.499C65.5215 29.96 66.0098 27.6732 66.9863 25.6387C67.9792 23.6042 69.3545 22.0091 71.1123 20.8535C72.8701 19.6816 74.7744 19.0957 76.8252 19.0957C80.0316 19.0957 82.5706 20.1943 84.4424 22.3916C86.3304 24.5726 87.2744 27.5592 87.2744 31.3516V32.9873H68.4268V33.5488C68.4268 36.5436 69.2812 39.042 70.9902 41.0439C72.7155 43.0296 74.8802 44.0225 77.4844 44.0225C79.0469 44.0225 80.4222 43.7376 81.6104 43.168C82.8148 42.5983 83.9053 41.6868 84.8818 40.4336L86.7129 41.8252C84.5645 44.9339 81.4476 46.4883 77.3623 46.4883ZM76.8252 21.5859C74.6279 21.5859 72.7725 22.3916 71.2588 24.0029C69.7614 25.6143 68.8499 27.779 68.5244 30.4971H84.3691V30.1797C84.2878 27.6406 83.5635 25.5736 82.1963 23.9785C80.8291 22.3835 79.0387 21.5859 76.8252 21.5859ZM126.386 33.0605C126.386 37.1784 125.474 40.4499 123.651 42.875C121.828 45.2839 119.379 46.4883 116.303 46.4883C112.624 46.4883 109.841 45.1211 107.953 42.3867L107.831 46H105.097V8.5H108.002V23.417C109.857 20.5361 112.608 19.0957 116.254 19.0957C119.379 19.0957 121.845 20.292 123.651 22.6846C125.474 25.0609 126.386 28.373 126.386 32.6211V33.0605ZM123.456 32.5479C123.456 29.0648 122.781 26.3792 121.43 24.4912C120.079 22.5869 118.174 21.6348 115.717 21.6348C113.845 21.6348 112.258 22.0986 110.956 23.0264C109.654 23.9378 108.669 25.2806 108.002 27.0547V38.9688C109.467 42.2891 112.055 43.9492 115.766 43.9492C118.174 43.9492 120.054 42.9971 121.405 41.0928C122.772 39.1885 123.456 36.3402 123.456 32.5479ZM143.085 46.4883C140.839 46.4883 138.804 45.9349 136.981 44.8281C135.175 43.7214 133.767 42.1833 132.758 40.2139C131.749 38.2282 131.244 36.0065 131.244 33.5488V32.499C131.244 29.96 131.732 27.6732 132.709 25.6387C133.702 23.6042 135.077 22.0091 136.835 20.8535C138.593 19.6816 140.497 19.0957 142.548 19.0957C145.754 19.0957 148.293 20.1943 150.165 22.3916C152.053 24.5726 152.997 27.5592 152.997 31.3516V32.9873H134.149V33.5488C134.149 36.5436 135.004 39.042 136.713 41.0439C138.438 43.0296 140.603 44.0225 143.207 44.0225C144.77 44.0225 146.145 43.7376 147.333 43.168C148.537 42.5983 149.628 41.6868 150.604 40.4336L152.436 41.8252C150.287 44.9339 147.17 46.4883 143.085 46.4883ZM142.548 21.5859C140.351 21.5859 138.495 22.3916 136.981 24.0029C135.484 25.6143 134.573 27.779 134.247 30.4971H150.092V30.1797C150.01 27.6406 149.286 25.5736 147.919 23.9785C146.552 22.3835 144.761 21.5859 142.548 21.5859ZM174.506 39.2861C174.506 37.8376 173.92 36.6738 172.748 35.7949C171.592 34.916 169.843 34.2324 167.499 33.7441C165.155 33.2396 163.332 32.6699 162.03 32.0352C160.744 31.3841 159.784 30.5947 159.149 29.667C158.531 28.7393 158.222 27.6162 158.222 26.2979C158.222 24.2145 159.092 22.4974 160.834 21.1465C162.576 19.7793 164.805 19.0957 167.523 19.0957C170.469 19.0957 172.829 19.8281 174.604 21.293C176.394 22.7415 177.289 24.6377 177.289 26.9814H174.359C174.359 25.4352 173.708 24.1494 172.406 23.124C171.12 22.0986 169.493 21.5859 167.523 21.5859C165.603 21.5859 164.057 22.0173 162.885 22.8799C161.729 23.7262 161.151 24.833 161.151 26.2002C161.151 27.5186 161.632 28.5439 162.592 29.2764C163.568 29.9925 165.334 30.6517 167.89 31.2539C170.461 31.8561 172.382 32.499 173.651 33.1826C174.937 33.8662 175.889 34.6882 176.508 35.6484C177.126 36.6087 177.436 37.7725 177.436 39.1396C177.436 41.3695 176.532 43.1517 174.726 44.4863C172.935 45.821 170.591 46.4883 167.694 46.4883C164.618 46.4883 162.12 45.7477 160.199 44.2666C158.295 42.7692 157.343 40.8812 157.343 38.6025H160.272C160.386 40.3115 161.103 41.6462 162.421 42.6064C163.756 43.5505 165.513 44.0225 167.694 44.0225C169.729 44.0225 171.373 43.5749 172.626 42.6797C173.879 41.7845 174.506 40.6533 174.506 39.2861ZM188.568 12.8213V19.584H194.037V21.9766H188.568V39.5791C188.568 41.0439 188.829 42.1344 189.35 42.8506C189.887 43.5667 190.774 43.9248 192.011 43.9248C192.499 43.9248 193.288 43.8434 194.379 43.6807L194.501 46.0732C193.736 46.3499 192.694 46.4883 191.376 46.4883C189.374 46.4883 187.917 45.9105 187.006 44.7549C186.094 43.583 185.639 41.8659 185.639 39.6035V21.9766H180.78V19.584H185.639V12.8213H188.568Z" fill="#D31111"/>
<path d="M565.5 501V486.781H569.699C571.223 486.781 572.378 487.097 573.166 487.729C573.954 488.354 574.348 489.278 574.348 490.502C574.348 491.238 574.146 491.879 573.742 492.426C573.345 492.966 572.798 493.354 572.102 493.588C572.928 493.77 573.592 494.177 574.094 494.809C574.602 495.44 574.855 496.169 574.855 496.996C574.855 498.253 574.449 499.236 573.635 499.945C572.827 500.648 571.701 501 570.256 501H565.5ZM566.701 494.164V499.984H570.305C571.333 499.984 572.147 499.724 572.746 499.203C573.352 498.676 573.654 497.947 573.654 497.016C573.654 496.137 573.365 495.443 572.785 494.936C572.212 494.421 571.418 494.164 570.402 494.164H566.701ZM566.701 493.158H569.982C570.985 493.139 571.76 492.904 572.307 492.455C572.86 491.999 573.137 491.339 573.137 490.473C573.137 489.561 572.85 488.891 572.277 488.461C571.711 488.025 570.852 487.807 569.699 487.807H566.701V493.158ZM580.842 499.32L583.928 490.434H585.188L580.676 502.797L580.441 503.344C579.862 504.626 578.967 505.268 577.756 505.268C577.476 505.268 577.176 505.222 576.857 505.131L576.848 504.164L577.453 504.223C578.026 504.223 578.488 504.079 578.84 503.793C579.198 503.513 579.501 503.028 579.748 502.338L580.266 500.912L576.281 490.434H577.561L580.842 499.32ZM599.992 494.184H593.342V499.984H600.988V501H592.141V486.781H600.939V487.807H593.342V493.168H599.992V494.184ZM602.59 495.619C602.59 493.979 602.954 492.673 603.684 491.703C604.419 490.727 605.415 490.238 606.672 490.238C608.098 490.238 609.185 490.801 609.934 491.928V486H611.096V501H610.002L609.953 499.594C609.204 500.661 608.104 501.195 606.652 501.195C605.435 501.195 604.452 500.707 603.703 499.73C602.961 498.747 602.59 497.423 602.59 495.756V495.619ZM603.771 495.824C603.771 497.172 604.042 498.236 604.582 499.018C605.122 499.792 605.884 500.18 606.867 500.18C608.306 500.18 609.328 499.545 609.934 498.275V493.314C609.328 491.941 608.312 491.254 606.887 491.254C605.904 491.254 605.139 491.641 604.592 492.416C604.045 493.184 603.771 494.32 603.771 495.824ZM620.969 499.662C620.266 500.684 619.143 501.195 617.6 501.195C616.473 501.195 615.617 500.87 615.031 500.219C614.445 499.561 614.146 498.591 614.133 497.309V490.434H615.295V497.162C615.295 499.174 616.109 500.18 617.736 500.18C619.429 500.18 620.5 499.48 620.949 498.08V490.434H622.121V501H620.988L620.969 499.662ZM631.838 501C631.721 500.668 631.646 500.176 631.613 499.525C631.203 500.059 630.679 500.473 630.041 500.766C629.41 501.052 628.739 501.195 628.029 501.195C627.014 501.195 626.19 500.912 625.559 500.346C624.934 499.779 624.621 499.063 624.621 498.197C624.621 497.169 625.048 496.355 625.9 495.756C626.76 495.157 627.954 494.857 629.484 494.857H631.604V493.656C631.604 492.901 631.369 492.309 630.9 491.879C630.438 491.443 629.761 491.225 628.869 491.225C628.055 491.225 627.382 491.433 626.848 491.85C626.314 492.266 626.047 492.768 626.047 493.354L624.875 493.344C624.875 492.504 625.266 491.778 626.047 491.166C626.828 490.548 627.788 490.238 628.928 490.238C630.106 490.238 631.034 490.535 631.711 491.127C632.395 491.713 632.746 492.533 632.766 493.588V498.588C632.766 499.61 632.873 500.375 633.088 500.883V501H631.838ZM628.166 500.16C628.947 500.16 629.644 499.971 630.256 499.594C630.874 499.216 631.324 498.712 631.604 498.08V495.756H629.514C628.348 495.769 627.437 495.984 626.779 496.4C626.122 496.811 625.793 497.377 625.793 498.1C625.793 498.692 626.011 499.184 626.447 499.574C626.89 499.965 627.463 500.16 628.166 500.16ZM640.773 491.43C640.526 491.384 640.262 491.361 639.982 491.361C639.253 491.361 638.635 491.566 638.127 491.977C637.626 492.38 637.268 492.969 637.053 493.744V501H635.891V490.434H637.033L637.053 492.113C637.671 490.863 638.664 490.238 640.031 490.238C640.357 490.238 640.614 490.281 640.803 490.365L640.773 491.43ZM641.965 495.619C641.965 493.979 642.329 492.673 643.059 491.703C643.794 490.727 644.79 490.238 646.047 490.238C647.473 490.238 648.56 490.801 649.309 491.928V486H650.471V501H649.377L649.328 499.594C648.579 500.661 647.479 501.195 646.027 501.195C644.81 501.195 643.827 500.707 643.078 499.73C642.336 498.747 641.965 497.423 641.965 495.756V495.619ZM643.146 495.824C643.146 497.172 643.417 498.236 643.957 499.018C644.497 499.792 645.259 500.18 646.242 500.18C647.681 500.18 648.703 499.545 649.309 498.275V493.314C648.703 491.941 647.688 491.254 646.262 491.254C645.279 491.254 644.514 491.641 643.967 492.416C643.42 493.184 643.146 494.32 643.146 495.824ZM652.902 495.561C652.902 494.545 653.098 493.63 653.488 492.816C653.885 492.003 654.442 491.371 655.158 490.922C655.881 490.466 656.698 490.238 657.609 490.238C659.016 490.238 660.155 490.733 661.027 491.723C661.9 492.706 662.336 494.011 662.336 495.639V495.883C662.336 496.905 662.137 497.826 661.74 498.646C661.35 499.46 660.796 500.089 660.08 500.531C659.364 500.974 658.547 501.195 657.629 501.195C656.229 501.195 655.09 500.704 654.211 499.721C653.339 498.731 652.902 497.423 652.902 495.795V495.561ZM654.074 495.883C654.074 497.146 654.4 498.184 655.051 498.998C655.708 499.805 656.568 500.209 657.629 500.209C658.684 500.209 659.536 499.805 660.188 498.998C660.845 498.184 661.174 497.113 661.174 495.785V495.561C661.174 494.753 661.024 494.014 660.725 493.344C660.425 492.673 660.005 492.156 659.465 491.791C658.924 491.42 658.306 491.234 657.609 491.234C656.568 491.234 655.718 491.645 655.061 492.465C654.403 493.279 654.074 494.346 654.074 495.668V495.883ZM679.152 487.807H674.279V501H673.078V487.807H668.215V486.781H679.152V487.807ZM684.299 501.195C683.4 501.195 682.587 500.974 681.857 500.531C681.135 500.089 680.572 499.473 680.168 498.686C679.764 497.891 679.562 497.003 679.562 496.02V495.6C679.562 494.584 679.758 493.669 680.148 492.855C680.546 492.042 681.096 491.404 681.799 490.941C682.502 490.473 683.264 490.238 684.084 490.238C685.367 490.238 686.382 490.678 687.131 491.557C687.886 492.429 688.264 493.624 688.264 495.141V495.795H680.725V496.02C680.725 497.217 681.066 498.217 681.75 499.018C682.44 499.812 683.306 500.209 684.348 500.209C684.973 500.209 685.523 500.095 685.998 499.867C686.48 499.639 686.916 499.275 687.307 498.773L688.039 499.33C687.18 500.574 685.933 501.195 684.299 501.195ZM684.084 491.234C683.205 491.234 682.463 491.557 681.857 492.201C681.258 492.846 680.894 493.712 680.764 494.799H687.102V494.672C687.069 493.656 686.779 492.829 686.232 492.191C685.686 491.553 684.969 491.234 684.084 491.234ZM691.848 501H690.676V486H691.848V501ZM696.34 501H695.168V486H696.34V501Z" fill="#D31111"/>
</svg>
